<svg width="33" height="61" viewBox="0 0 33 61" fill="none" xmlns="http://www.w3.org/2000/svg">
<path d="M22.7648 59.7691C23.2423 60.0318 23.7744 60.1787 24.3187 60.1983C24.863 60.2178 25.4042 60.1094 25.8992 59.8816C26.3942 59.6538 26.8292 59.3131 27.1693 58.8866C27.5095 58.46 27.7454 57.9596 27.8582 57.4253C28.5565 54.062 28.1587 50.5627 26.7233 47.4434C25.2879 44.3241 22.8909 41.7499 19.8859 40.1004C16.8808 38.4509 13.4268 37.8134 10.033 38.282C6.63931 38.7505 3.48553 40.3003 1.03677 42.7028C0.650389 43.0857 0.358485 43.5538 0.184292 44.0699C0.0100992 44.5859 -0.0415734 45.1356 0.0333871 45.6752C0.108348 46.2147 0.307871 46.7293 0.616078 47.1779C0.924284 47.6266 1.33266 47.9969 1.80871 48.2593L1.89159 48.3045C2.54237 48.666 3.29177 48.8083 4.02931 48.7104C4.76685 48.6125 5.45352 48.2796 5.98809 47.7607C7.35068 46.4261 9.10385 45.5645 10.9905 45.3022C12.8771 45.0399 14.7979 45.3908 16.4711 46.3033C18.1443 47.2159 19.4819 48.6421 20.2877 50.3727C21.0936 52.1034 21.3252 54.0475 20.9486 55.9198C20.7945 56.6557 20.8797 57.4218 21.1917 58.1056C21.5036 58.7894 22.0259 59.3549 22.6819 59.7192L22.7648 59.7691Z" fill="#27AAE1"/>
<path d="M27.3088 9.46776C29.9073 9.46776 32.0139 7.35529 32.0139 4.74941C32.0139 2.14354 29.9073 0.0310669 27.3088 0.0310669C24.7103 0.0310669 22.6038 2.14354 22.6038 4.74941C22.6038 7.35529 24.7103 9.46776 27.3088 9.46776Z" fill="black"/>
<path d="M31.9026 16.7388C31.3806 13.0861 29.6185 9.72566 26.9133 7.22428C24.2081 4.7229 20.7254 3.23366 17.0527 3.00775C13.3799 2.78185 9.74185 3.83309 6.75209 5.98418C3.76234 8.13527 1.60384 11.2546 0.640667 14.8159C-0.322505 18.3773 -0.0314094 22.1629 1.46485 25.5341C2.96112 28.9053 5.57099 31.6558 8.85427 33.3218C12.1375 34.9878 15.8933 35.4672 19.4881 34.6793C23.0829 33.8914 26.2967 31.8843 28.5875 28.9966C28.7296 28.8161 28.8693 28.6333 29.0066 28.4457C30.4757 26.4265 31.4492 24.0883 31.8481 21.621C31.8671 21.5189 31.8813 21.4168 31.8955 21.3123C32.1133 19.7957 32.1133 18.2555 31.8955 16.7388H31.9026ZM23.0821 24.5584C22.1474 25.7474 20.9268 26.6786 19.5348 27.2647C18.1428 27.8508 16.6251 28.0725 15.1243 27.909C13.6234 27.7455 12.1886 27.2021 10.9546 26.33C9.72053 25.4578 8.72779 24.2854 8.06955 22.923C7.4113 21.5605 7.10915 20.0526 7.19147 18.5409C7.27379 17.0291 7.73788 15.5632 8.54016 14.2807C9.34244 12.9982 10.4566 11.9412 11.778 11.209C13.0994 10.4768 14.5846 10.0933 16.0944 10.0947H16.1464C18.3722 10.1085 20.5121 10.9577 22.1447 12.4748C23.7773 13.992 24.7841 16.0673 24.9669 18.2918C24.9859 18.5341 24.9954 18.7786 24.9954 19.0256C24.9992 21.0337 24.3248 22.9838 23.0821 24.5584V24.5584Z" fill="black"/>
</svg>
