<svg width="33" height="60" viewBox="0 0 33 60" fill="none" xmlns="http://www.w3.org/2000/svg">
<path d="M22.7648 59.5698C23.2423 59.8317 23.7744 59.9783 24.3187 59.9978C24.8629 60.0173 25.4042 59.9091 25.8992 59.682C26.3942 59.4549 26.8292 59.115 27.1693 58.6897C27.5095 58.2644 27.7454 57.7654 27.8582 57.2326C28.5565 53.8788 28.1586 50.3893 26.7232 47.2788C25.2879 44.1683 22.8909 41.6013 19.8859 39.9565C16.8808 38.3116 13.4268 37.676 10.033 38.1432C6.6393 38.6104 3.48553 40.1558 1.03677 42.5515C0.650388 42.9334 0.358485 43.4002 0.184292 43.9148C0.0100992 44.4294 -0.0415734 44.9775 0.033387 45.5155C0.108348 46.0536 0.307871 46.5667 0.616078 47.0141C0.924284 47.4615 1.33266 47.8307 1.80871 48.0925L1.89159 48.1374C2.54237 48.498 3.29177 48.6399 4.02931 48.5422C4.76685 48.4446 5.45352 48.1126 5.98809 47.5952C7.35068 46.2644 9.10385 45.4052 10.9905 45.1436C12.8771 44.8821 14.7979 45.232 16.4711 46.142C18.1443 47.0519 19.4819 48.4741 20.2877 50.1999C21.0936 51.9257 21.3252 53.8643 20.9486 55.7314C20.7945 56.4652 20.8797 57.2291 21.1917 57.911C21.5036 58.5929 22.0259 59.1568 22.6819 59.52L22.7648 59.5698Z" fill="#27AAE1"/>
<path d="M27.3088 9.41011C29.9073 9.41011 32.0139 7.30359 32.0139 4.70506C32.0139 2.10653 29.9073 0 27.3088 0C24.7103 0 22.6038 2.10653 22.6038 4.70506C22.6038 7.30359 24.7103 9.41011 27.3088 9.41011Z" fill="white"/>
<path d="M31.9026 16.6607C31.3806 13.0182 29.6185 9.66722 26.9133 7.17289C24.2081 4.67855 20.7254 3.19351 17.0527 2.96824C13.3799 2.74297 9.74185 3.79125 6.75209 5.93628C3.76234 8.08131 1.60384 11.1918 0.640667 14.7432C-0.322505 18.2945 -0.0314094 22.0694 1.46485 25.4311C2.96112 28.7928 5.57099 31.5356 8.85427 33.1969C12.1375 34.8582 15.8933 35.3363 19.4881 34.5506C23.0829 33.7649 26.2967 31.7635 28.5875 28.8839C28.7296 28.7039 28.8693 28.5216 29.0066 28.3345C30.4757 26.321 31.4492 23.9894 31.8481 21.5291C31.8671 21.4273 31.8813 21.3255 31.8955 21.2213C32.1133 19.7089 32.1133 18.1731 31.8955 16.6607H31.9026ZM23.0821 24.4582C22.1474 25.6438 20.9268 26.5724 19.5348 27.1569C18.1428 27.7413 16.6251 27.9624 15.1243 27.7993C13.6234 27.6363 12.1886 27.0945 10.9546 26.2248C9.72053 25.3551 8.72779 24.186 8.06955 22.8273C7.4113 21.4687 7.10915 19.965 7.19147 18.4576C7.27379 16.9501 7.73788 15.4883 8.54016 14.2094C9.34244 12.9305 10.4566 11.8765 11.778 11.1464C13.0994 10.4162 14.5846 10.0339 16.0944 10.0352H16.1464C18.3722 10.049 20.5121 10.8957 22.1447 12.4087C23.7773 13.9216 24.7841 15.991 24.9669 18.2093C24.9859 18.4508 24.9954 18.6947 24.9954 18.941C24.9992 20.9434 24.3248 22.8881 23.0821 24.4582Z" fill="white"/>
</svg>
