<svg width="33" height="61" viewBox="0 0 33 61" fill="none" xmlns="http://www.w3.org/2000/svg">
<path d="M22.7648 59.7687C23.2423 60.0314 23.7744 60.1783 24.3187 60.1979C24.863 60.2174 25.4042 60.109 25.8992 59.8812C26.3942 59.6534 26.8292 59.3127 27.1693 58.8862C27.5095 58.4596 27.7454 57.9592 27.8582 57.4249C28.5565 54.0616 28.1587 50.5623 26.7233 47.443C25.2879 44.3237 22.8909 41.7495 19.8859 40.1C16.8808 38.4505 13.4268 37.813 10.033 38.2816C6.63931 38.7501 3.48553 40.2999 1.03677 42.7024C0.650389 43.0853 0.358485 43.5534 0.184292 44.0695C0.0100992 44.5855 -0.0415734 45.1352 0.0333871 45.6748C0.108348 46.2143 0.307871 46.7289 0.616078 47.1775C0.924284 47.6262 1.33266 47.9965 1.80871 48.2589L1.89159 48.3041C2.54237 48.6656 3.29177 48.8079 4.02931 48.71C4.76685 48.6121 5.45352 48.2792 5.98809 47.7603C7.35068 46.4257 9.10385 45.5641 10.9905 45.3018C12.8771 45.0395 14.7979 45.3904 16.4711 46.3029C18.1443 47.2155 19.4819 48.6417 20.2877 50.3723C21.0936 52.103 21.3252 54.0471 20.9486 55.9194C20.7945 56.6553 20.8797 57.4214 21.1917 58.1052C21.5036 58.789 22.0259 59.3545 22.6819 59.7188L22.7648 59.7687Z" fill="#27AAE1"/>
<path d="M27.3085 9.46794C29.907 9.46794 32.0136 7.35547 32.0136 4.74959C32.0136 2.14372 29.907 0.03125 27.3085 0.03125C24.71 0.03125 22.6035 2.14372 22.6035 4.74959C22.6035 7.35547 24.71 9.46794 27.3085 9.46794Z" fill="#090C10"/>
<path d="M31.9025 16.7387C31.3805 13.086 29.6184 9.72554 26.9132 7.22416C24.208 4.72278 20.7253 3.23354 17.0526 3.00763C13.3798 2.78173 9.74173 3.83297 6.75197 5.98406C3.76222 8.13515 1.60372 11.2545 0.640545 14.8158C-0.322627 18.3772 -0.0315311 22.1628 1.46473 25.534C2.961 28.9052 5.57087 31.6557 8.85415 33.3217C12.1374 34.9877 15.8932 35.4671 19.488 34.6792C23.0828 33.8913 26.2966 31.8842 28.5874 28.9965C28.7295 28.816 28.8692 28.6332 29.0065 28.4456C30.4756 26.4264 31.4491 24.0882 31.848 21.6209C31.867 21.5188 31.8812 21.4167 31.8954 21.3122C32.1132 19.7956 32.1132 18.2554 31.8954 16.7387H31.9025ZM23.082 24.5583C22.1473 25.7473 20.9267 26.6785 19.5347 27.2646C18.1427 27.8507 16.625 28.0724 15.1242 27.9089C13.6233 27.7454 12.1885 27.202 10.9545 26.3299C9.72041 25.4577 8.72767 24.2853 8.06943 22.9229C7.41118 21.5604 7.10903 20.0525 7.19135 18.5408C7.27367 17.029 7.73776 15.5631 8.54004 14.2806C9.34232 12.9981 10.4565 11.9411 11.7779 11.2089C13.0993 10.4767 14.5845 10.0932 16.0943 10.0946H16.1463C18.3721 10.1084 20.512 10.9576 22.1446 12.4747C23.7772 13.9919 24.784 16.0672 24.9668 18.2917C24.9858 18.534 24.9953 18.7785 24.9953 19.0255C24.9991 21.0336 24.3247 22.9837 23.082 24.5583Z" fill="#090C10"/>
</svg>
